HIERARCHY
ROOT Hips
{
	OFFSET -32.860001 56.121803 44.745396
	CHANNELS 6 Xposition Yposition Zposition Zrotation Xrotation Yrotation
	JOINT Chest
	{
		OFFSET -0.637402 0.831600 5.390099
		CHANNELS 6 Xposition Yposition Zposition Zrotation Xrotation Yrotation
		JOINT Chest2
		{
			OFFSET 0.000000 0.000000 4.429901
			CHANNELS 6 Xposition Yposition Zposition Zrotation Xrotation Yrotation
			JOINT Neck
			{
				OFFSET 0.000000 0.000000 10.301395
				CHANNELS 6 Xposition Yposition Zposition Zrotation Xrotation Yrotation
				JOINT Head
				{
					OFFSET 0.000000 0.000000 2.173897
					CHANNELS 6 Xposition Yposition Zposition Zrotation Xrotation Yrotation
					End Site
					{
						OFFSET 0.000000 0.000000 8.298004
					}
				}
			}
			JOINT LeftCollar
			{
				OFFSET 2.142401 -0.572701 5.717800
				CHANNELS 6 Xposition Yposition Zposition Zrotation Xrotation Yrotation
				JOINT LeftShoulder
				{
					OFFSET 5.674000 0.000000 0.000000
					CHANNELS 6 Xposition Yposition Zposition Zrotation Xrotation Yrotation
					JOINT LeftElbow
					{
						OFFSET 0.000000 0.000000 -12.238701
						CHANNELS 6 Xposition Yposition Zposition Zrotation Xrotation Yrotation
						JOINT LeftWrist
						{
							OFFSET 0.000000 0.000000 -10.253700
							CHANNELS 6 Xposition Yposition Zposition Zrotation Xrotation Yrotation
							End Site
							{
								OFFSET 0.000000 0.000000 -2.173901
							}
						}
					}
				}
			}
			JOINT RightCollar
			{
				OFFSET -2.882599 -1.580101 6.695801
				CHANNELS 6 Xposition Yposition Zposition Zrotation Xrotation Yrotation
				JOINT RightShoulder
				{
					OFFSET -4.235600 0.000000 0.000000
					CHANNELS 6 Xposition Yposition Zposition Zrotation Xrotation Yrotation
					JOINT RightElbow
					{
						OFFSET 0.000000 0.000000 -10.709900
						CHANNELS 6 Xposition Yposition Zposition Zrotation Xrotation Yrotation
						JOINT RightWrist
						{
							OFFSET 0.000000 0.000000 -11.716801
							CHANNELS 6 Xposition Yposition Zposition Zrotation Xrotation Yrotation
							End Site
							{
								OFFSET 0.000000 0.000000 -2.173901
							}
						}
					}
				}
			}
		}
	}
	JOINT LeftHip
	{
		OFFSET 2.279499 0.210400 -2.475502
		CHANNELS 6 Xposition Yposition Zposition Zrotation Xrotation Yrotation
		JOINT LeftKnee
		{
			OFFSET 0.000000 -0.000004 -20.742800
			CHANNELS 6 Xposition Yposition Zposition Zrotation Xrotation Yrotation
			JOINT LeftAnkle
			{
				OFFSET 0.000000 0.000000 -16.666000
				CHANNELS 6 Xposition Yposition Zposition Zrotation Xrotation Yrotation
				End Site
				{
					OFFSET 0.000000 -8.310898 0.000000
				}
			}
		}
	}
	JOINT RightHip
	{
		OFFSET -1.961899 0.232300 -2.727402
		CHANNELS 6 Xposition Yposition Zposition Zrotation Xrotation Yrotation
		JOINT RightKnee
		{
			OFFSET 0.000000 -0.000004 -20.526800
			CHANNELS 6 Xposition Yposition Zposition Zrotation Xrotation Yrotation
			JOINT RightAnkle
			{
				OFFSET 0.000000 0.000000 -16.867300
				CHANNELS 6 Xposition Yposition Zposition Zrotation Xrotation Yrotation
				End Site
				{
					OFFSET 0.000000 -7.186401 0.000000
				}
			}
		}
	}
}
MOTION
Frames: 4
Frame Time: 0.041667
76.978714 -52.695015 18.116594 2165.747418 25.216399 7.814734 -0.637405 0.831604 5.390097 -11.076805 -16.669107 6.245911 0.000009 -0.000001 4.429901 -4.892842 -2.805149 -0.438715 -0.000008 0.000000 10.301397 402.480044 -6.237424 -16.658488 -0.000001 0.000006 2.173901 -357.144417 -5.408764 3.109619 2.142397 -0.572694 5.717796 0.998474 -4.340558 -4.234547 5.673994 0.000001 -0.000001 340.919767 -713.570080 253.798027 -0.000007 -0.000002 -12.238722 251.919206 -22.051259 242.795193 -0.000004 0.000005 -10.253705 -18.847658 54.841764 -94.444857 -2.882602 -1.580096 6.695790 -4.347085 -6.480854 33.288604 -4.235618 -0.000002 -0.000009 -1638.289174 234.001188 -447.850805 0.000004 -0.000013 -10.709908 480.722156 -163.135681 162.118078 -0.000012 -0.000015 -11.716797 -548.053395 -5.578002 -32.701528 2.279503 0.210407 -2.475508 515.814028 -6.290393 138.415833 0.000001 -0.000007 -20.742813 -681.730525 204.293950 -37.612971 -0.000004 0.000003 -16.665997 791.739136 8.118631 52.598361 -1.961895 0.232306 -2.727406 -869.653618 -15.598339 -62.195265 0.000004 -0.000001 -20.526810 762.709575 193.689125 -271.126217 0.000000 -0.000005 -16.867306 -100.568969 -4.266099 -46.316240
76.985420 -52.659805 18.112795 2165.904786 25.605204 7.652048 -0.637396 0.831600 5.390097 -11.338548 -16.700552 6.396327 0.000011 0.000000 4.429901 -4.946172 -2.850490 -0.441564 -0.000004 0.000007 10.301394 402.547663 -6.736283 -16.633905 0.000005 -0.000001 2.173900 -357.149062 -5.119914 3.097701 2.142402 -0.572690 5.717807 1.458621 -4.773114 -4.609252 5.674003 -0.000001 -0.000007 340.321689 -713.509865 254.056809 -0.000003 0.000002 -12.238708 251.747222 -22.169233 242.635886 0.000017 -0.000005 -10.253704 -19.020868 54.916893 -94.334604 -2.882607 -1.580090 6.695796 -4.679534 -7.171074 33.011838 -4.235607 0.000006 -0.000005 -1637.256996 233.491656 -447.352092 0.000008 0.000010 -10.709901 480.250709 -163.195950 162.146710 -0.000004 -0.000003 -11.716793 -547.991104 -5.535239 -32.793224 2.279501 0.210401 -2.475509 515.369793 -6.028329 138.698930 0.000006 -0.000002 -20.742802 -681.785057 204.282297 -37.601506 -0.000001 0.000001 -16.666002 792.018245 8.054705 52.713993 -1.961895 0.232298 -2.727400 -869.727821 -15.556048 -62.489804 0.000012 0.000004 -20.526806 762.428773 193.687595 -271.180804 0.000000 0.000003 -16.867296 -100.643056 -4.202177 -46.353991
76.986420 -52.623131 18.109983 2166.004889 25.869483 7.668792 -0.637400 0.831602 5.390103 -11.598727 -16.454906 6.436810 0.000017 -0.000003 4.429897 -5.061253 -2.901933 -0.444688 -0.000004 0.000001 10.301399 402.815652 -7.538078 -16.586003 -0.000005 -0.000019 2.173902 -357.218511 -4.811890 3.048676 2.142397 -0.572702 5.717799 2.289617 -5.450780 -5.156249 5.673995 0.000000 -0.000002 339.380106 -713.425389 254.499870 -0.000002 -0.000002 -12.238701 251.177119 -23.038568 242.444176 -0.000007 0.000009 -10.253693 -19.938856 54.973191 -94.210766 -2.882606 -1.580093 6.695796 -5.377924 -8.443753 32.407584 -4.235604 0.000004 -0.000000 -1635.079969 233.102991 -446.292374 -0.000003 0.000002 -10.709900 480.010614 -163.384614 162.300840 0.000009 -0.000010 -11.716802 -547.782920 -5.542264 -32.876265 2.279503 0.210403 -2.475500 515.043802 -5.923912 139.034006 -0.000004 -0.000003 -20.742805 -681.832650 204.207452 -37.619207 0.000010 0.000007 -16.665998 792.294403 8.097919 52.554894 -1.961891 0.232298 -2.727394 -869.461389 -15.807655 -62.526776 -0.000003 0.000005 -20.526802 761.825312 193.524640 -271.256837 -0.000006 0.000000 -16.867300 -100.607607 -4.090647 -46.375256
76.984222 -52.586098 18.103987 2166.264546 25.994844 7.552500 -0.637404 0.831597 5.390097 -11.955902 -16.054969 6.552413 0.000006 -0.000004 4.429904 -5.165807 -3.020115 -0.456490 0.000004 0.000001 10.301397 403.020066 -8.254266 -16.489415 0.000008 0.000003 2.173902 -357.299490 -4.640889 2.932234 2.142400 -0.572692 5.717799 2.895302 -6.010692 -5.480611 5.674001 -0.000007 -0.000007 338.654412 -713.317636 254.659696 0.000003 0.000002 -12.238707 250.457272 -24.090120 242.153347 -0.000004 0.000008 -10.253696 -21.058689 54.994737 -94.142656 -2.882596 -1.580091 6.695793 -6.138382 -9.616406 31.726980 -4.235611 -0.000002 -0.000010 -1632.856606 232.958737 -445.245607 0.000004 0.000000 -10.709897 480.349774 -163.430881 162.612119 -0.000012 -0.000009 -11.716801 -548.237428 -5.319023 -32.623470 2.279493 0.210400 -2.475506 514.555853 -5.897840 139.206946 -0.000002 -0.000001 -20.742807 -681.895105 204.263583 -37.609303 -0.000004 -0.000003 -16.666000 792.544388 7.978329 52.711561 -1.961900 0.232296 -2.727401 -869.367624 -16.119139 -62.561097 0.000006 -0.000014 -20.526800 761.325779 193.273685 -271.399534 -0.000003 0.000000 -16.867302 -100.492307 -3.994280 -46.351774
